<?xml version="1.0" encoding="UTF-8" standalone="no"?>
<!DOCTYPE svg PUBLIC "-//W3C//DTD SVG 1.1//EN"
 "http://www.w3.org/Graphics/SVG/1.1/DTD/svg11.dtd">
<!-- Generated by graphviz version 2.43.20190912.0211 (20190912.0211)
 -->
<!-- Title: $paramod&#9586;alu&#9586;DATA_WIDTH=s32&#39;00000000000000000000000000100000 Pages: 1 -->
<svg width="1062pt" height="336pt"
 viewBox="0.00 0.00 1061.74 336.00" xmlns="http://www.w3.org/2000/svg" xmlns:xlink="http://www.w3.org/1999/xlink">
<g id="graph0" class="graph" transform="scale(1 1) rotate(0) translate(4 332)">
<title>$paramod&#9586;alu&#9586;DATA_WIDTH=s32&#39;00000000000000000000000000100000</title>
<polygon fill="white" stroke="transparent" points="-4,4 -4,-332 1057.74,-332 1057.74,4 -4,4"/>
<text text-anchor="middle" x="526.87" y="-7.8" font-family="Times,serif" font-size="14.00">$paramod╲alu╲DATA_WIDTH=s32&#39;00000000000000000000000000100000</text>
<!-- n7 -->
<g id="node1" class="node">
<title>n7</title>
<polygon fill="none" stroke="black" points="108.51,-33.54 108.51,-48.46 76.68,-59 31.66,-59 -0.17,-48.46 -0.17,-33.54 31.66,-23 76.68,-23 108.51,-33.54"/>
<text text-anchor="middle" x="54.17" y="-37.3" font-family="Times,serif" font-size="14.00">overflow</text>
</g>
<!-- n8 -->
<g id="node2" class="node">
<title>n8</title>
<polygon fill="none" stroke="black" points="92.15,-87.54 92.15,-102.46 69.9,-113 38.44,-113 16.19,-102.46 16.19,-87.54 38.44,-77 69.9,-77 92.15,-87.54"/>
<text text-anchor="middle" x="54.17" y="-91.3" font-family="Times,serif" font-size="14.00">carry</text>
</g>
<!-- n9 -->
<g id="node3" class="node">
<title>n9</title>
<polygon fill="none" stroke="black" points="1053.81,-297.54 1053.81,-312.46 1034.4,-323 1006.96,-323 987.55,-312.46 987.55,-297.54 1006.96,-287 1034.4,-287 1053.81,-297.54"/>
<text text-anchor="middle" x="1020.68" y="-301.3" font-family="Times,serif" font-size="14.00">zero</text>
</g>
<!-- n10 -->
<g id="node4" class="node">
<title>n10</title>
<polygon fill="none" stroke="black" points="642.56,-292.54 642.56,-307.46 618.24,-318 583.85,-318 559.53,-307.46 559.53,-292.54 583.85,-282 618.24,-282 642.56,-292.54"/>
<text text-anchor="middle" x="601.04" y="-296.3" font-family="Times,serif" font-size="14.00">result</text>
</g>
<!-- c20 -->
<g id="node11" class="node">
<title>c20</title>
<polygon fill="none" stroke="black" points="724.78,-286 724.78,-324 865.78,-324 865.78,-286 724.78,-286"/>
<text text-anchor="middle" x="737.78" y="-301.3" font-family="Times,serif" font-size="14.00">A</text>
<polyline fill="none" stroke="black" points="750.78,-286 750.78,-324 "/>
<text text-anchor="middle" x="795.28" y="-308.8" font-family="Times,serif" font-size="14.00">$735</text>
<text text-anchor="middle" x="795.28" y="-293.8" font-family="Times,serif" font-size="14.00">$logic_not</text>
<polyline fill="none" stroke="black" points="839.78,-286 839.78,-324 "/>
<text text-anchor="middle" x="852.78" y="-301.3" font-family="Times,serif" font-size="14.00">Y</text>
</g>
<!-- n10&#45;&gt;c20 -->
<g id="edge5" class="edge">
<title>n10:e&#45;&gt;c20:w</title>
<path fill="none" stroke="black" stroke-width="3" d="M642.55,-300C674.85,-300 685.26,-304.04 713.11,-304.86"/>
<polygon fill="black" stroke="black" stroke-width="3" points="713.23,-308.36 723.28,-305 713.33,-301.36 713.23,-308.36"/>
</g>
<!-- n11 -->
<g id="node5" class="node">
<title>n11</title>
<polygon fill="none" stroke="black" points="97.9,-249.54 97.9,-264.46 72.28,-275 36.05,-275 10.44,-264.46 10.44,-249.54 36.05,-239 72.28,-239 97.9,-249.54"/>
<text text-anchor="middle" x="54.17" y="-253.3" font-family="Times,serif" font-size="14.00">alu_op</text>
</g>
<!-- c19 -->
<g id="node10" class="node">
<title>c19</title>
<polygon fill="none" stroke="black" points="144.34,-235 144.34,-273 299.34,-273 299.34,-235 144.34,-235"/>
<text text-anchor="middle" x="157.34" y="-250.3" font-family="Times,serif" font-size="14.00">A</text>
<polyline fill="none" stroke="black" points="170.34,-235 170.34,-273 "/>
<text text-anchor="middle" x="221.84" y="-257.8" font-family="Times,serif" font-size="14.00">$757_CMP0</text>
<text text-anchor="middle" x="221.84" y="-242.8" font-family="Times,serif" font-size="14.00">$logic_not</text>
<polyline fill="none" stroke="black" points="273.34,-235 273.34,-273 "/>
<text text-anchor="middle" x="286.34" y="-250.3" font-family="Times,serif" font-size="14.00">Y</text>
</g>
<!-- n11&#45;&gt;c19 -->
<g id="edge6" class="edge">
<title>n11:e&#45;&gt;c19:w</title>
<path fill="none" stroke="black" stroke-width="3" d="M99.17,-257C115.36,-257 121.71,-255.06 134.06,-254.3"/>
<polygon fill="black" stroke="black" stroke-width="3" points="134.44,-257.79 144.34,-254 134.24,-250.79 134.44,-257.79"/>
</g>
<!-- n12 -->
<g id="node6" class="node">
<title>n12</title>
<polygon fill="none" stroke="black" points="81.17,-141.54 81.17,-156.46 65.35,-167 42.99,-167 27.17,-156.46 27.17,-141.54 42.99,-131 65.35,-131 81.17,-141.54"/>
<text text-anchor="middle" x="54.17" y="-145.3" font-family="Times,serif" font-size="14.00">b</text>
</g>
<!-- c21 -->
<g id="node12" class="node">
<title>c21</title>
<polygon fill="none" stroke="black" points="168.84,-168 168.84,-214 274.84,-214 274.84,-168 168.84,-168"/>
<text text-anchor="middle" x="182.34" y="-198.8" font-family="Times,serif" font-size="14.00">A</text>
<polyline fill="none" stroke="black" points="168.84,-191 195.84,-191 "/>
<text text-anchor="middle" x="182.34" y="-175.8" font-family="Times,serif" font-size="14.00">B</text>
<polyline fill="none" stroke="black" points="195.84,-168 195.84,-214 "/>
<text text-anchor="middle" x="222.34" y="-194.8" font-family="Times,serif" font-size="14.00">$734</text>
<text text-anchor="middle" x="222.34" y="-179.8" font-family="Times,serif" font-size="14.00">$add</text>
<polyline fill="none" stroke="black" points="248.84,-168 248.84,-214 "/>
<text text-anchor="middle" x="261.84" y="-187.3" font-family="Times,serif" font-size="14.00">Y</text>
</g>
<!-- n12&#45;&gt;c21 -->
<g id="edge7" class="edge">
<title>n12:e&#45;&gt;c21:w</title>
<path fill="none" stroke="black" stroke-width="3" d="M82.17,-149C118.89,-149 126.31,-173.85 157.77,-178.32"/>
<polygon fill="black" stroke="black" stroke-width="3" points="157.62,-181.82 167.84,-179 158.1,-174.83 157.62,-181.82"/>
</g>
<!-- n13 -->
<g id="node7" class="node">
<title>n13</title>
<polygon fill="none" stroke="black" points="81.17,-195.54 81.17,-210.46 65.35,-221 42.99,-221 27.17,-210.46 27.17,-195.54 42.99,-185 65.35,-185 81.17,-195.54"/>
<text text-anchor="middle" x="54.17" y="-199.3" font-family="Times,serif" font-size="14.00">a</text>
</g>
<!-- n13&#45;&gt;c21 -->
<g id="edge8" class="edge">
<title>n13:e&#45;&gt;c21:w</title>
<path fill="none" stroke="black" stroke-width="3" d="M82.17,-203C116.67,-203 127.73,-203 157.84,-203"/>
<polygon fill="black" stroke="black" stroke-width="3" points="157.84,-206.5 167.84,-203 157.84,-199.5 157.84,-206.5"/>
</g>
<!-- v0 -->
<g id="node8" class="node">
<title>v0</title>
<ellipse fill="none" stroke="black" cx="221.84" cy="-310" rx="27" ry="18"/>
<text text-anchor="middle" x="221.84" y="-306.3" font-family="Times,serif" font-size="14.00">0</text>
</g>
<!-- c18 -->
<g id="node9" class="node">
<title>c18</title>
<polygon fill="none" stroke="black" points="335.34,-242.5 335.34,-311.5 444.34,-311.5 444.34,-242.5 335.34,-242.5"/>
<text text-anchor="middle" x="348.84" y="-296.3" font-family="Times,serif" font-size="14.00">A</text>
<polyline fill="none" stroke="black" points="335.34,-288.5 362.34,-288.5 "/>
<text text-anchor="middle" x="348.84" y="-273.3" font-family="Times,serif" font-size="14.00">B</text>
<polyline fill="none" stroke="black" points="335.34,-265.5 362.34,-265.5 "/>
<text text-anchor="middle" x="348.84" y="-250.3" font-family="Times,serif" font-size="14.00">S</text>
<polyline fill="none" stroke="black" points="362.34,-242.5 362.34,-311.5 "/>
<text text-anchor="middle" x="390.34" y="-280.8" font-family="Times,serif" font-size="14.00">$756</text>
<text text-anchor="middle" x="390.34" y="-265.8" font-family="Times,serif" font-size="14.00">$mux</text>
<polyline fill="none" stroke="black" points="418.34,-242.5 418.34,-311.5 "/>
<text text-anchor="middle" x="431.34" y="-273.3" font-family="Times,serif" font-size="14.00">Y</text>
</g>
<!-- v0&#45;&gt;c18 -->
<g id="edge15" class="edge">
<title>v0:e&#45;&gt;c18:w</title>
<path fill="none" stroke="black" stroke-width="3" d="M249.84,-310C284.51,-310 295.14,-301.79 325.3,-300.25"/>
<polygon fill="black" stroke="black" stroke-width="3" points="325.43,-303.75 335.34,-300 325.25,-296.75 325.43,-303.75"/>
</g>
<!-- n1 -->
<g id="node17" class="node">
<title>n1</title>
<ellipse fill="black" stroke="black" cx="482.14" cy="-277" rx="1.8" ry="1.8"/>
</g>
<!-- c18&#45;&gt;n1 -->
<g id="edge1" class="edge">
<title>c18:e&#45;&gt;n1:w</title>
<path fill="none" stroke="black" stroke-width="3" d="M444.34,-277C456.34,-277 461.59,-277 470.21,-277"/>
<polygon fill="black" stroke="black" stroke-width="3" points="470.34,-280.5 480.34,-277 470.34,-273.5 470.34,-280.5"/>
</g>
<!-- c19&#45;&gt;c18 -->
<g id="edge9" class="edge">
<title>c19:e&#45;&gt;c18:w</title>
<path fill="none" stroke="black" d="M299.34,-254C311.34,-254 316.59,-254 325.21,-254"/>
<polygon fill="black" stroke="black" points="325.34,-257.5 335.34,-254 325.34,-250.5 325.34,-257.5"/>
</g>
<!-- x1 -->
<g id="node13" class="node">
<title>x1</title>
<ellipse fill="black" stroke="black" cx="949.82" cy="-305" rx="1.8" ry="1.8"/>
</g>
<!-- c20&#45;&gt;x1 -->
<g id="edge10" class="edge">
<title>c20:e&#45;&gt;x1:w</title>
<path fill="none" stroke="black" d="M867.28,-305C899.52,-305 910.03,-305 937.86,-305"/>
<polygon fill="black" stroke="black" points="938.02,-308.5 948.02,-305 938.02,-301.5 938.02,-308.5"/>
</g>
<!-- c21&#45;&gt;c18 -->
<g id="edge11" class="edge">
<title>c21:e&#45;&gt;c18:w</title>
<path fill="none" stroke="black" stroke-width="3" d="M275.84,-191C318.5,-191 293.81,-263.47 325.43,-275.36"/>
<polygon fill="black" stroke="black" stroke-width="3" points="324.9,-278.82 335.34,-277 326.04,-271.91 324.9,-278.82"/>
</g>
<!-- x1&#45;&gt;n9 -->
<g id="edge14" class="edge">
<title>x1:e&#45;&gt;n9:w</title>
<path fill="none" stroke="black" d="M951.62,-305C963.62,-305 968.87,-305 977.49,-305"/>
<polygon fill="black" stroke="black" points="977.62,-308.5 987.62,-305 977.62,-301.5 977.62,-308.5"/>
</g>
<!-- x2 -->
<g id="node14" class="node">
<title>x2</title>
<ellipse fill="black" stroke="black" cx="601.04" cy="-258" rx="1.8" ry="1.8"/>
</g>
<!-- n6 -->
<g id="node18" class="node">
<title>n6</title>
<polygon fill="none" stroke="black" points="795.28,-267 678.32,-249 795.28,-231 912.25,-249 795.28,-267"/>
<text text-anchor="middle" x="795.28" y="-245.3" font-family="Times,serif" font-size="14.00">$0╲result[31:0]</text>
</g>
<!-- x2&#45;&gt;n6 -->
<g id="edge13" class="edge">
<title>x2:e&#45;&gt;n6:w</title>
<path fill="none" stroke="black" stroke-width="3" d="M604.04,-258C633.75,-258 643.18,-250.86 668.46,-249.3"/>
<polygon fill="black" stroke="black" stroke-width="3" points="668.66,-252.8 678.55,-249 668.45,-245.8 668.66,-252.8"/>
</g>
<!-- x3 -->
<g id="node15" class="node">
<title>x3</title>
<ellipse fill="black" stroke="black" cx="521.74" cy="-266" rx="1.8" ry="1.8"/>
</g>
<!-- x3&#45;&gt;x2 -->
<g id="edge12" class="edge">
<title>x3:e&#45;&gt;x2:w</title>
<path fill="none" stroke="black" stroke-width="3" d="M523.54,-266C553.2,-266 562.71,-259.65 587.96,-258.27"/>
<polygon fill="black" stroke="black" stroke-width="3" points="588.14,-261.76 598.04,-258 587.95,-254.77 588.14,-261.76"/>
</g>
<!-- x4 -->
<g id="node16" class="node">
<title>x4</title>
<ellipse fill="black" stroke="black" cx="521.74" cy="-294" rx="1.8" ry="1.8"/>
</g>
<!-- x4&#45;&gt;n10 -->
<g id="edge4" class="edge">
<title>x4:e&#45;&gt;n10:w</title>
<path fill="none" stroke="black" stroke-width="3" d="M523.54,-294C535.7,-294 540.75,-297.38 549.35,-299.06"/>
<polygon fill="black" stroke="black" stroke-width="3" points="549.26,-302.57 559.54,-300 549.9,-295.6 549.26,-302.57"/>
</g>
<!-- n1&#45;&gt;x3 -->
<g id="edge2" class="edge">
<title>n1:e&#45;&gt;x3:w</title>
<path fill="none" stroke="black" stroke-width="3" d="M483.94,-277C496.62,-277 501.15,-270.68 509.88,-267.62"/>
<polygon fill="black" stroke="black" stroke-width="3" points="510.62,-271.05 519.94,-266 509.51,-264.14 510.62,-271.05"/>
</g>
<!-- n1&#45;&gt;x4 -->
<g id="edge3" class="edge">
<title>n1:e&#45;&gt;x4:w</title>
<path fill="none" stroke="black" stroke-width="3" d="M483.94,-277C497.62,-277 501.09,-287.17 510.14,-291.78"/>
<polygon fill="black" stroke="black" stroke-width="3" points="509.41,-295.2 519.94,-294 510.96,-288.37 509.41,-295.2"/>
</g>
</g>
</svg>
